<?xml version="1.0" encoding="utf-8"?>
<!-- Generator: Adobe Illustrator 25.0.0, SVG Export Plug-In . SVG Version: 6.00 Build 0)  -->
<svg version="1.1" id="Layer_1" xmlns="http://www.w3.org/2000/svg" xmlns:xlink="http://www.w3.org/1999/xlink" x="0px" y="0px"
	 viewBox="0 0 26.1 26.1" style="enable-background:new 0 0 26.1 26.1;" xml:space="preserve">
<style type="text/css">
	.st0{fill:#09B0AD;}
	.st1{clip-path:url(#SVGID_2_);}
	.st2{fill:#013C55;}
	.st3{filter:url(#Adobe_OpacityMaskFilter);}
	.st4{mask:url(#SVGID_3_);}
	.st5{fill:url(#SVGID_4_);}
	.st6{fill:#45FFFA;}
	.st7{fill:#5BE2F8;}
	.st8{clip-path:url(#SVGID_6_);}
	.st9{fill:url(#SVGID_7_);}
	.st10{fill:#FFFFFF;}
	.st11{opacity:0.5;}
	.st12{fill:#109E9E;}
	.st13{opacity:0.65;}
	.st14{fill:#354750;}
	.st15{fill:none;stroke:#272830;stroke-width:0.5;stroke-miterlimit:10;stroke-opacity:0.5;stroke-dasharray:6;}
	.st16{fill:#0D9E9E;}
	.st17{fill:#ABBBC4;}
	.st18{opacity:0.75;clip-path:url(#SVGID_13_);fill:#0B0F11;}
	.st19{fill:none;stroke:url(#SVGID_14_);stroke-width:15;stroke-miterlimit:10;}
	.st20{fill:url(#SVGID_15_);}
	.st21{fill:url(#SVGID_16_);}
	.st22{clip-path:url(#SVGID_18_);}
	.st23{clip-path:url(#SVGID_20_);}
	.st24{clip-path:url(#SVGID_22_);}
	.st25{clip-path:url(#SVGID_24_);}
	.st26{clip-path:url(#SVGID_26_);}
	.st27{clip-path:url(#SVGID_28_);}
	.st28{clip-path:url(#SVGID_30_);}
	.st29{clip-path:url(#SVGID_32_);}
	.st30{clip-path:url(#SVGID_34_);}
	.st31{filter:url(#Adobe_OpacityMaskFilter_1_);}
	.st32{mask:url(#SVGID_35_);}
	.st33{fill:url(#SVGID_36_);}
	.st34{clip-path:url(#SVGID_38_);}
	.st35{filter:url(#Adobe_OpacityMaskFilter_2_);}
	.st36{mask:url(#SVGID_39_);}
	.st37{fill:url(#SVGID_40_);}
	.st38{fill:#FFFFFF;stroke:#272830;stroke-width:0.5;stroke-miterlimit:10;stroke-opacity:0.5;stroke-dasharray:6;}
	.st39{opacity:0.25;}
	.st40{clip-path:url(#SVGID_42_);}
	.st41{filter:url(#Adobe_OpacityMaskFilter_3_);}
	.st42{mask:url(#SVGID_43_);}
	.st43{fill:url(#SVGID_44_);}
	.st44{opacity:0.75;}
	.st45{fill:none;stroke:#FEFEFE;stroke-width:1.7113;stroke-miterlimit:10;}
	.st46{fill:#FEFEFE;}
	.st47{fill:none;stroke:url(#SVGID_47_);stroke-width:15;stroke-linecap:round;stroke-miterlimit:10;}
	.st48{fill:none;stroke:url(#SVGID_50_);stroke-width:15;stroke-linecap:round;stroke-miterlimit:10;}
	.st49{fill:none;stroke:url(#SVGID_53_);stroke-width:15;stroke-linecap:round;stroke-miterlimit:10;}
	.st50{fill:none;stroke:url(#SVGID_56_);stroke-width:15;stroke-linecap:round;stroke-miterlimit:10;}
	.st51{fill:none;stroke:url(#SVGID_59_);stroke-width:15;stroke-linecap:round;stroke-miterlimit:10;}
	.st52{fill:none;stroke:url(#SVGID_60_);stroke-width:15;stroke-linecap:round;stroke-miterlimit:10;}
	.st53{fill:none;stroke:url(#SVGID_63_);stroke-width:15;stroke-linecap:round;stroke-miterlimit:10;}
</style>
<g>
	<defs>
		<rect id="SVGID_37_" x="-1781.8" y="-773" width="1920" height="537.5"/>
	</defs>
	<clipPath id="SVGID_2_">
		<use xlink:href="#SVGID_37_"  style="overflow:visible;"/>
	</clipPath>
	<g class="st1">
		<g>
			<rect x="-1546.2" y="-802.6" class="st2" width="1677.5" height="943.6"/>
		</g>
		<g id="eZVvy2_6_">
			<defs>
				<filter id="Adobe_OpacityMaskFilter" filterUnits="userSpaceOnUse" x="-1321.5" y="-830.6" width="1526.1" height="1017.6">
					<feFlood  style="flood-color:white;flood-opacity:1" result="back"/>
					<feBlend  in="SourceGraphic" in2="back" mode="normal"/>
				</filter>
			</defs>
			<mask maskUnits="userSpaceOnUse" x="-1321.5" y="-830.6" width="1526.1" height="1017.6" id="SVGID_3_">
				<g class="st3">
					
						<image style="overflow:visible;" width="1531" height="1022" xlink:href="933E39D158770C58.jpg"  transform="matrix(1 0 0 1 -1324.1599 -832.957)">
					</image>
				</g>
			</mask>
			<g class="st4">
				<g>
					
						<image style="overflow:visible;" width="2560" height="1707" id="eZVvy2_13_" xlink:href="933E39D158770C59.jpg"  transform="matrix(0.5961 0 0 0.5961 -1321.5056 -830.6052)">
					</image>
				</g>
			</g>
		</g>
		<g>
			<linearGradient id="SVGID_4_" gradientUnits="userSpaceOnUse" x1="103.3362" y1="-631.7735" x2="-1300.0076" y2="-148.8838">
				<stop  offset="1.248265e-07" style="stop-color:#1E99C4;stop-opacity:0"/>
				<stop  offset="0.9394" style="stop-color:#09B0AD"/>
			</linearGradient>
			<rect x="-1575.5" y="-814.5" class="st5" width="1677.5" height="943.6"/>
		</g>
	</g>
</g>
<g>
	<g id="O0Yfyk.tif_24_">
		<g>
			<g>
				<path class="st0" d="M13,26.1c-1.9,0-3.7,0-5.6,0c-2.6,0-4.6-2.1-4.6-4.6c0-1.9,0-3.7,0-5.6c0-0.5,0.3-0.9,0.8-1
					c0.5-0.1,0.9,0.3,1,0.7c0,0.1,0,0.3,0,0.4c0,1.8,0,3.6,0,5.4c0,1.6,1.2,2.8,2.8,2.8c3.7,0,7.4,0,11.1,0c1.6,0,2.8-1.2,2.8-2.8
					c0-1.8,0-3.7,0-5.5c0-0.4,0.2-0.8,0.6-0.9c0.4-0.1,0.8-0.1,1,0.2c0.1,0.2,0.3,0.4,0.3,0.6c0,2,0.1,3.9,0,5.9
					c-0.1,2.4-2.2,4.3-4.5,4.3C16.8,26.1,14.9,26.1,13,26.1z"/>
				<path class="st0" d="M13.1,2.2c-0.1,0.2-0.2,0.3-0.3,0.3c-3.7,3.7-7.3,7.3-11,11c-0.1,0.1-0.2,0.2-0.3,0.2
					c-0.4,0.3-0.9,0.3-1.2-0.1c-0.3-0.3-0.4-0.9,0-1.2c0.1-0.1,0.1-0.1,0.2-0.2C4.4,8.3,8.3,4.4,12.2,0.4c0.6-0.6,1-0.6,1.6,0
					c3.9,3.9,7.9,7.9,11.8,11.8c0.2,0.2,0.4,0.4,0.4,0.8c0,0.4-0.2,0.7-0.5,0.9c-0.3,0.2-0.7,0.1-1-0.1c-0.1-0.1-0.2-0.2-0.3-0.2
					c-3.7-3.7-7.3-7.3-11-11C13.2,2.4,13.2,2.3,13.1,2.2z"/>
			</g>
		</g>
	</g>
</g>
</svg>
