<?xml version="1.0" encoding="utf-8"?>
<!-- Generator: Adobe Illustrator 25.0.0, SVG Export Plug-In . SVG Version: 6.00 Build 0)  -->
<svg version="1.1" id="Layer_1" xmlns="http://www.w3.org/2000/svg" xmlns:xlink="http://www.w3.org/1999/xlink" x="0px" y="0px"
	 viewBox="0 0 388.4 388.4" style="enable-background:new 0 0 388.4 388.4;" xml:space="preserve">
<style type="text/css">
	.st0{fill:#09B0AD;}
	.st1{clip-path:url(#SVGID_2_);}
	.st2{fill:#013C55;}
	.st3{filter:url(#Adobe_OpacityMaskFilter);}
	.st4{mask:url(#SVGID_3_);}
	.st5{fill:url(#SVGID_4_);}
	.st6{fill:#45FFFA;}
	.st7{fill:#5BE2F8;}
	.st8{clip-path:url(#SVGID_6_);}
	.st9{fill:url(#SVGID_7_);}
	.st10{fill:#FFFFFF;}
	.st11{opacity:0.5;}
	.st12{fill:#109E9E;}
	.st13{opacity:0.65;}
	.st14{fill:#354750;}
	.st15{fill:none;stroke:#272830;stroke-width:0.5;stroke-miterlimit:10;stroke-opacity:0.5;stroke-dasharray:6;}
	.st16{fill:#0D9E9E;}
	.st17{fill:#ABBBC4;}
	.st18{opacity:0.75;clip-path:url(#SVGID_13_);fill:#0B0F11;}
	.st19{fill:none;stroke:url(#SVGID_14_);stroke-width:15;stroke-miterlimit:10;}
	.st20{fill:url(#SVGID_15_);}
	.st21{fill:url(#SVGID_16_);}
	.st22{clip-path:url(#SVGID_18_);}
	.st23{clip-path:url(#SVGID_20_);}
	.st24{clip-path:url(#SVGID_22_);}
	.st25{clip-path:url(#SVGID_24_);}
	.st26{clip-path:url(#SVGID_26_);}
	.st27{clip-path:url(#SVGID_28_);}
	.st28{clip-path:url(#SVGID_30_);}
	.st29{clip-path:url(#SVGID_32_);}
	.st30{clip-path:url(#SVGID_34_);}
	.st31{filter:url(#Adobe_OpacityMaskFilter_1_);}
	.st32{mask:url(#SVGID_35_);}
	.st33{fill:url(#SVGID_36_);}
	.st34{fill:#FFFFFF;stroke:#272830;stroke-width:0.5;stroke-miterlimit:10;stroke-opacity:0.5;stroke-dasharray:6;}
	.st35{opacity:0.25;}
	.st36{clip-path:url(#SVGID_38_);}
	.st37{filter:url(#Adobe_OpacityMaskFilter_2_);}
	.st38{mask:url(#SVGID_39_);}
	.st39{fill:url(#SVGID_40_);}
	.st40{opacity:0.75;}
	.st41{fill:none;stroke:#FEFEFE;stroke-width:1.7113;stroke-miterlimit:10;}
	.st42{fill:#FEFEFE;}
	.st43{fill:none;stroke:url(#SVGID_43_);stroke-width:15;stroke-linecap:round;stroke-miterlimit:10;}
	.st44{fill:none;stroke:url(#SVGID_46_);stroke-width:15;stroke-linecap:round;stroke-miterlimit:10;}
	.st45{fill:none;stroke:url(#SVGID_49_);stroke-width:15;stroke-linecap:round;stroke-miterlimit:10;}
	.st46{fill:none;stroke:url(#SVGID_52_);stroke-width:15;stroke-linecap:round;stroke-miterlimit:10;}
	.st47{fill:none;stroke:url(#SVGID_55_);stroke-width:15;stroke-linecap:round;stroke-miterlimit:10;}
	.st48{fill:none;stroke:url(#SVGID_56_);stroke-width:15;stroke-linecap:round;stroke-miterlimit:10;}
	.st49{fill:none;stroke:url(#SVGID_59_);stroke-width:15;stroke-linecap:round;stroke-miterlimit:10;}
	.st50{opacity:0.75;clip-path:url(#SVGID_61_);fill:#0B0F11;}
	.st51{fill:url(#SVGID_62_);}
	.st52{fill:url(#SVGID_63_);}
</style>
<g>
	<defs>
		<circle id="SVGID_60_" cx="194.2" cy="194.2" r="194.2"/>
	</defs>
	<clipPath id="SVGID_2_">
		<use xlink:href="#SVGID_60_"  style="overflow:visible;"/>
	</clipPath>
	<rect x="-77.7" y="-59.9" style="opacity:0.75;clip-path:url(#SVGID_2_);fill:#0B0F11;" width="549.4" height="493.5"/>
</g>
<g id="ixeQDc.tif_2_">
	<g>
		<linearGradient id="SVGID_3_" gradientUnits="userSpaceOnUse" x1="145.6416" y1="270.7839" x2="220.1308" y2="156.3898">
			<stop  offset="0" style="stop-color:#109E9E"/>
			<stop  offset="1" style="stop-color:#2CE790"/>
		</linearGradient>
		<path style="fill:url(#SVGID_3_);" d="M194.8,247.1c13.3-0.2,24.9-4.5,34.8-13.5c10.9-10,16.5-22.4,17-37.2c0-0.8,0.1-1.6,0.3-2.4
			c0.6-2.2,2.8-3.5,5.1-3.2c2.2,0.3,3.8,2.2,3.9,4.6c0,4.4-0.4,8.8-1.5,13.1c-6.1,23.9-21,39.7-44.9,45.9
			c-30.2,7.8-60.9-8.7-71.8-38c-8.4-22.5-2.5-48.4,14.9-65c10.2-9.7,22.3-15.3,36.2-16.8c1.9-0.2,3.9-0.3,5.8-0.3
			c2.7,0,4.7,1.8,4.8,4.3c0.1,2.6-1.5,4.6-4.3,4.9c-3.5,0.4-7.1,0.5-10.5,1.1c-9,1.7-17,5.7-23.9,11.9c-9.2,8.2-15.1,18.4-16.9,30.6
			c-2.4,15.7,1.5,29.8,11.9,42c6.9,8.1,15.7,13.6,26,16.3C185.9,246.5,190.3,247.1,194.8,247.1z"/>
		<linearGradient id="SVGID_4_" gradientUnits="userSpaceOnUse" x1="143.8452" y1="269.6142" x2="218.3344" y2="155.22">
			<stop  offset="0" style="stop-color:#109E9E"/>
			<stop  offset="1" style="stop-color:#2CE790"/>
		</linearGradient>
		<path class="st5" d="M190.7,206.3c0.5-0.6,0.7-1,1.1-1.4c17.8-17.8,35.6-35.5,53.4-53.3c1.3-1.3,2.7-2.2,4.6-1.8
			c3.5,0.6,5,4.6,2.8,7.4c-0.3,0.4-0.7,0.8-1.1,1.1c-19,19-38,37.9-57.1,56.9c-2.8,2.8-5.3,2.8-8-0.2c-7.4-8-14.8-16-22.2-24.1
			c-2-2.1-2-5,0-6.8c1.9-1.7,4.6-1.6,6.5,0.3c1.8,1.8,3.5,3.7,5.2,5.6c4.7,5.1,9.5,10.3,14.2,15.4
			C190.2,205.6,190.3,205.8,190.7,206.3z"/>
	</g>
</g>
</svg>
