<?xml version="1.0" encoding="utf-8"?>
<!-- Generator: Adobe Illustrator 25.0.0, SVG Export Plug-In . SVG Version: 6.00 Build 0)  -->
<svg version="1.1" id="Layer_1" xmlns="http://www.w3.org/2000/svg" xmlns:xlink="http://www.w3.org/1999/xlink" x="0px" y="0px"
	 viewBox="0 0 60.2 55.2" style="enable-background:new 0 0 60.2 55.2;" xml:space="preserve">
<style type="text/css">
	.st0{fill:#09B0AD;}
	.st1{clip-path:url(#SVGID_2_);}
	.st2{fill:#013C55;}
	.st3{filter:url(#Adobe_OpacityMaskFilter);}
	.st4{mask:url(#SVGID_3_);}
	.st5{fill:url(#SVGID_4_);}
	.st6{fill:#45FFFA;}
	.st7{fill:#5BE2F8;}
	.st8{clip-path:url(#SVGID_6_);}
	.st9{fill:url(#SVGID_7_);}
	.st10{fill:#FFFFFF;}
	.st11{opacity:0.5;}
	.st12{fill:#109E9E;}
	.st13{opacity:0.65;}
	.st14{fill:#354750;}
	.st15{fill:none;stroke:#272830;stroke-width:0.5;stroke-miterlimit:10;stroke-opacity:0.5;stroke-dasharray:6;}
	.st16{fill:#0D9E9E;}
	.st17{fill:#ABBBC4;}
	.st18{opacity:0.75;clip-path:url(#SVGID_13_);fill:#0B0F11;}
	.st19{fill:none;stroke:url(#SVGID_14_);stroke-width:15;stroke-miterlimit:10;}
	.st20{fill:url(#SVGID_15_);}
	.st21{fill:url(#SVGID_16_);}
	.st22{clip-path:url(#SVGID_18_);}
	.st23{clip-path:url(#SVGID_20_);}
	.st24{clip-path:url(#SVGID_22_);}
	.st25{clip-path:url(#SVGID_24_);}
	.st26{clip-path:url(#SVGID_26_);}
	.st27{clip-path:url(#SVGID_28_);}
	.st28{clip-path:url(#SVGID_30_);}
	.st29{clip-path:url(#SVGID_32_);}
	.st30{clip-path:url(#SVGID_34_);}
	.st31{filter:url(#Adobe_OpacityMaskFilter_1_);}
	.st32{mask:url(#SVGID_35_);}
	.st33{fill:url(#SVGID_36_);}
	.st34{clip-path:url(#SVGID_38_);}
	.st35{filter:url(#Adobe_OpacityMaskFilter_2_);}
	.st36{mask:url(#SVGID_39_);}
	.st37{fill:url(#SVGID_40_);}
	.st38{fill:#FFFFFF;stroke:#272830;stroke-width:0.5;stroke-miterlimit:10;stroke-opacity:0.5;stroke-dasharray:6;}
	.st39{opacity:0.25;}
	.st40{clip-path:url(#SVGID_42_);}
	.st41{filter:url(#Adobe_OpacityMaskFilter_3_);}
	.st42{mask:url(#SVGID_43_);}
	.st43{fill:url(#SVGID_44_);}
	.st44{opacity:0.75;}
	.st45{fill:none;stroke:#FEFEFE;stroke-width:1.7113;stroke-miterlimit:10;}
	.st46{fill:#FEFEFE;}
	.st47{fill:none;stroke:url(#SVGID_47_);stroke-width:15;stroke-linecap:round;stroke-miterlimit:10;}
	.st48{fill:none;stroke:url(#SVGID_50_);stroke-width:15;stroke-linecap:round;stroke-miterlimit:10;}
	.st49{fill:none;stroke:url(#SVGID_53_);stroke-width:15;stroke-linecap:round;stroke-miterlimit:10;}
	.st50{fill:none;stroke:url(#SVGID_56_);stroke-width:15;stroke-linecap:round;stroke-miterlimit:10;}
	.st51{fill:none;stroke:url(#SVGID_59_);stroke-width:15;stroke-linecap:round;stroke-miterlimit:10;}
	.st52{fill:none;stroke:url(#SVGID_60_);stroke-width:15;stroke-linecap:round;stroke-miterlimit:10;}
	.st53{fill:none;stroke:url(#SVGID_63_);stroke-width:15;stroke-linecap:round;stroke-miterlimit:10;}
</style>
<g>
	<defs>
		<rect id="SVGID_37_" x="-1525.8" y="-769" width="1920" height="537.5"/>
	</defs>
	<clipPath id="SVGID_2_">
		<use xlink:href="#SVGID_37_"  style="overflow:visible;"/>
	</clipPath>
	<g class="st1">
		<g>
			<rect x="-1290.1" y="-798.6" class="st2" width="1677.5" height="943.6"/>
		</g>
		<g id="eZVvy2_6_">
			<defs>
				<filter id="Adobe_OpacityMaskFilter" filterUnits="userSpaceOnUse" x="-1065.4" y="-826.7" width="1526.1" height="1017.6">
					<feFlood  style="flood-color:white;flood-opacity:1" result="back"/>
					<feBlend  in="SourceGraphic" in2="back" mode="normal"/>
				</filter>
			</defs>
			<mask maskUnits="userSpaceOnUse" x="-1065.4" y="-826.7" width="1526.1" height="1017.6" id="SVGID_3_">
				<g class="st3">
					
						<image style="overflow:visible;" width="1531" height="1022" xlink:href="93577AF786A20935.jpg"  transform="matrix(1 0 0 1 -1068.1024 -829.0328)">
					</image>
				</g>
			</mask>
			<g class="st4">
				<g>
					
						<image style="overflow:visible;" width="2560" height="1707" id="eZVvy2_13_" xlink:href="93577AF786A20937.jpg"  transform="matrix(0.5961 0 0 0.5961 -1065.448 -826.6809)">
					</image>
				</g>
			</g>
		</g>
		<g>
			<linearGradient id="SVGID_4_" gradientUnits="userSpaceOnUse" x1="359.3938" y1="-627.8493" x2="-1043.9501" y2="-144.9595">
				<stop  offset="1.248265e-07" style="stop-color:#1E99C4;stop-opacity:0"/>
				<stop  offset="0.9394" style="stop-color:#09B0AD"/>
			</linearGradient>
			<rect x="-1319.4" y="-810.6" class="st5" width="1677.5" height="943.6"/>
		</g>
	</g>
</g>
<g id="XtQmZM.tif_1_" class="st39">
	<g>
		<g>
			<path class="st2" d="M35.1,40.1c-6.2,0-12.4,0-18.6,0c-3.2,0-5.7-1.9-6.4-5C10,34.7,10,34.1,10,33.6c0-9,0-18,0-26.9
				c0-4,2.7-6.6,6.7-6.6C29,0,41.3,0,53.6,0c3.9,0,6.6,2.7,6.6,6.6c0,9,0,18.1,0,27.1c0,3.3-2.1,5.8-5.2,6.4c-0.5,0.1-1,0.1-1.5,0.1
				C47.3,40.1,41.2,40.1,35.1,40.1z M55.1,24c0-0.3,0-0.4,0-0.6c0-5.6,0-11.3,0-16.9c0-1.1-0.4-1.5-1.6-1.5C41.3,5,29,5,16.6,5
				C15.4,5,15,5.4,15,6.6c0,7.5,0,15.1,0,22.6c0,0.2,0,0.4,0,0.6c0.2-0.2,0.4-0.4,0.5-0.5c2-2,4-4,6.1-6.1c2.1-2.1,4.7-2.1,6.8,0
				c0.9,0.9,1.8,1.8,2.7,2.8c1.1-1.3,2-2.4,3-3.6c2.1-2.5,4.1-5,6.2-7.4c1.2-1.4,2.6-2,4.4-1.6c1,0.2,1.9,0.8,2.6,1.6
				c2.1,2.4,4.1,4.8,6.2,7.2C54.1,22.8,54.6,23.3,55.1,24z"/>
			<path class="st2" d="M52.1,43.9c-0.2,0.8-0.5,1.5-0.7,2.1c-0.5,1.7-1.1,3.4-1.6,5.1c-1,3.1-3.9,4.7-7,3.8
				c-8.8-2.3-17.5-4.7-26.3-7c-4-1.1-8.1-2.2-12.1-3.2c-3.4-0.9-5.2-4-4.2-7.4C2.2,31,4.1,24.7,6,18.4c0-0.2,0.1-0.3,0.3-0.5
				c0,0.2,0,0.4,0,0.6c0,5.3,0,10.5,0,15.8c0,3.8,1.7,6.7,5,8.5c1.5,0.8,3.1,1.1,4.8,1.1c11.7,0,23.5,0,35.2,0
				C51.5,43.9,51.8,43.9,52.1,43.9z"/>
			<path class="st2" d="M22.6,17.6c-2.8,0-5-2.3-5-5c0-2.8,2.3-5,5.1-5c2.7,0,5,2.3,5,5C27.6,15.3,25.3,17.6,22.6,17.6z"/>
		</g>
	</g>
</g>
</svg>
