<?xml version="1.0" encoding="utf-8"?>
<!-- Generator: Adobe Illustrator 25.0.0, SVG Export Plug-In . SVG Version: 6.00 Build 0)  -->
<svg version="1.1" id="Layer_1" xmlns="http://www.w3.org/2000/svg" xmlns:xlink="http://www.w3.org/1999/xlink" x="0px" y="0px"
	 viewBox="0 0 22.9 28.4" style="enable-background:new 0 0 22.9 28.4;" xml:space="preserve">
<style type="text/css">
	.st0{fill:#09B0AD;}
	.st1{clip-path:url(#SVGID_2_);}
	.st2{fill:#013C55;}
	.st3{filter:url(#Adobe_OpacityMaskFilter);}
	.st4{mask:url(#SVGID_3_);}
	.st5{fill:url(#SVGID_4_);}
	.st6{fill:#45FFFA;}
	.st7{fill:#5BE2F8;}
	.st8{clip-path:url(#SVGID_6_);}
	.st9{fill:url(#SVGID_7_);}
	.st10{fill:#FFFFFF;}
	.st11{opacity:0.5;}
	.st12{fill:#109E9E;}
	.st13{opacity:0.65;}
	.st14{fill:#354750;}
	.st15{fill:none;stroke:#272830;stroke-width:0.5;stroke-miterlimit:10;stroke-opacity:0.5;stroke-dasharray:6;}
	.st16{fill:#0D9E9E;}
	.st17{fill:#ABBBC4;}
	.st18{opacity:0.75;clip-path:url(#SVGID_13_);fill:#0B0F11;}
	.st19{fill:none;stroke:url(#SVGID_14_);stroke-width:15;stroke-miterlimit:10;}
	.st20{fill:url(#SVGID_15_);}
	.st21{fill:url(#SVGID_16_);}
	.st22{clip-path:url(#SVGID_18_);}
	.st23{clip-path:url(#SVGID_20_);}
	.st24{clip-path:url(#SVGID_22_);}
	.st25{clip-path:url(#SVGID_24_);}
	.st26{clip-path:url(#SVGID_26_);}
	.st27{clip-path:url(#SVGID_28_);}
	.st28{clip-path:url(#SVGID_30_);}
	.st29{clip-path:url(#SVGID_32_);}
	.st30{clip-path:url(#SVGID_34_);}
	.st31{filter:url(#Adobe_OpacityMaskFilter_1_);}
	.st32{mask:url(#SVGID_35_);}
	.st33{fill:url(#SVGID_36_);}
	.st34{clip-path:url(#SVGID_38_);}
	.st35{filter:url(#Adobe_OpacityMaskFilter_2_);}
	.st36{mask:url(#SVGID_39_);}
	.st37{fill:url(#SVGID_40_);}
	.st38{fill:#FFFFFF;stroke:#272830;stroke-width:0.5;stroke-miterlimit:10;stroke-opacity:0.5;stroke-dasharray:6;}
	.st39{opacity:0.25;}
	.st40{clip-path:url(#SVGID_42_);}
	.st41{filter:url(#Adobe_OpacityMaskFilter_3_);}
	.st42{mask:url(#SVGID_43_);}
	.st43{fill:url(#SVGID_44_);}
	.st44{opacity:0.75;}
	.st45{fill:none;stroke:#FEFEFE;stroke-width:1.7113;stroke-miterlimit:10;}
	.st46{fill:#FEFEFE;}
	.st47{fill:none;stroke:url(#SVGID_47_);stroke-width:15;stroke-linecap:round;stroke-miterlimit:10;}
	.st48{fill:none;stroke:url(#SVGID_50_);stroke-width:15;stroke-linecap:round;stroke-miterlimit:10;}
	.st49{fill:none;stroke:url(#SVGID_53_);stroke-width:15;stroke-linecap:round;stroke-miterlimit:10;}
	.st50{fill:none;stroke:url(#SVGID_56_);stroke-width:15;stroke-linecap:round;stroke-miterlimit:10;}
	.st51{fill:none;stroke:url(#SVGID_59_);stroke-width:15;stroke-linecap:round;stroke-miterlimit:10;}
	.st52{fill:none;stroke:url(#SVGID_60_);stroke-width:15;stroke-linecap:round;stroke-miterlimit:10;}
	.st53{fill:none;stroke:url(#SVGID_63_);stroke-width:15;stroke-linecap:round;stroke-miterlimit:10;}
</style>
<g>
	<defs>
		<rect id="SVGID_37_" x="-1954.3" y="-772.3" width="1920" height="537.5"/>
	</defs>
	<clipPath id="SVGID_2_">
		<use xlink:href="#SVGID_37_"  style="overflow:visible;"/>
	</clipPath>
	<g class="st1">
		<g id="eZVvy2_6_">
			<defs>
				<filter id="Adobe_OpacityMaskFilter" filterUnits="userSpaceOnUse" x="-1494" y="-829.9" width="1526.1" height="1017.6">
					<feFlood  style="flood-color:white;flood-opacity:1" result="back"/>
					<feBlend  in="SourceGraphic" in2="back" mode="normal"/>
				</filter>
			</defs>
			<mask maskUnits="userSpaceOnUse" x="-1494" y="-829.9" width="1526.1" height="1017.6" id="SVGID_3_">
				<g class="st3">
					
						<image style="overflow:visible;" width="1531" height="1022" xlink:href="9346A4DE128560A3.jpg"  transform="matrix(1 0 0 1 -1496.6143 -832.2951)">
					</image>
				</g>
			</mask>
			<g class="st4">
				<g>
					
						<image style="overflow:visible;" width="2560" height="1707" id="eZVvy2_13_" xlink:href="9346A4DE128560A1.jpg"  transform="matrix(0.5961 0 0 0.5961 -1493.96 -829.9433)">
					</image>
				</g>
			</g>
		</g>
	</g>
</g>
<g class="st13">
	<g id="_x38_XmMLT.tif_24_">
		<g>
			<g>
				<path class="st14" d="M22.9,15.1c0,3.3,0,6.7,0,10c0,1.6-1.1,2.9-2.8,3.2c-0.2,0-0.5,0-0.7,0c-5.3,0-10.6,0-15.9,0
					C1.4,28.4,0,27,0,25.1c0-6.6,0-13.3,0-19.9c0-1.9,1.4-3.3,3.5-3.3c1.5,0,3,0,4.5,0c0.2,0,0.3-0.1,0.4-0.2C9.1,0.6,10.1,0,11.5,0
					c1.4,0,2.4,0.6,3.1,1.7c0.1,0.2,0.2,0.2,0.4,0.2c1.5,0,3,0,4.5,0c2.1,0,3.5,1.3,3.5,3.3C22.9,8.5,22.9,11.8,22.9,15.1z M5.7,3.3
					c-0.7,0-1.5,0-2.3,0c-1.2,0-1.9,0.7-1.9,1.8c0,6.7,0,13.3,0,20c0,1.1,0.8,1.8,1.9,1.8c5.3,0,10.7,0,16,0c0.2,0,0.4,0,0.5,0
					c0.9-0.2,1.4-0.9,1.4-1.8c0-5.3,0-10.6,0-16c0-1.3,0-2.6,0-3.9c0-1.2-0.7-1.9-2.1-1.9c-0.6,0-1.3,0-1.9,0c-0.1,0-0.2,0-0.3,0
					c0,0.2,0,0.4,0,0.6c0,1.7-1.5,3-3.3,3.1c-1.6,0-3.2,0-4.8,0c-1.5,0-2.8-1-3.1-2.3C5.8,4.3,5.8,3.9,5.7,3.3z M7.3,3.3
					c0,0.2,0,0.3,0,0.4c0,1.2,0.7,1.9,2,1.9c1.4,0,2.9,0,4.3,0c0.2,0,0.4,0,0.5,0c1.1-0.2,1.7-1.2,1.4-2.3c0,0,0,0-0.1,0
					c-0.4,0-0.9,0-1.3,0c-0.5,0-0.7-0.2-0.9-0.6c-0.3-0.8-1-1.3-1.9-1.3c-0.9,0-1.6,0.5-1.9,1.3C9.4,3.2,9.2,3.3,8.7,3.3
					C8.3,3.3,7.8,3.3,7.3,3.3z"/>
				<path class="st14" d="M10.2,17.7c1-0.9,1.9-1.7,2.9-2.6c0.7-0.6,1.4-1.3,2.1-1.9c0.2-0.2,0.5-0.3,0.8-0.2
					c0.3,0.1,0.5,0.3,0.5,0.6c0.1,0.3-0.1,0.5-0.3,0.7c-1.4,1.2-2.7,2.5-4.1,3.7c-0.4,0.4-0.8,0.8-1.3,1.1c-0.4,0.4-0.8,0.4-1.2,0
					c-1-0.9-2-1.8-2.9-2.7c-0.4-0.3-0.4-0.8-0.1-1.1c0.3-0.3,0.8-0.3,1.2,0.1C8.6,16.2,9.4,16.9,10.2,17.7z"/>
			</g>
		</g>
	</g>
</g>
</svg>
