<?xml version="1.0" encoding="utf-8"?>
<!-- Generator: Adobe Illustrator 25.0.0, SVG Export Plug-In . SVG Version: 6.00 Build 0)  -->
<svg version="1.1" id="Layer_1" xmlns="http://www.w3.org/2000/svg" xmlns:xlink="http://www.w3.org/1999/xlink" x="0px" y="0px"
	 viewBox="0 0 25.3 25.3" style="enable-background:new 0 0 25.3 25.3;" xml:space="preserve">
<style type="text/css">
	.st0{fill:#09B0AD;}
	.st1{clip-path:url(#SVGID_2_);}
	.st2{fill:#013C55;}
	.st3{filter:url(#Adobe_OpacityMaskFilter);}
	.st4{mask:url(#SVGID_3_);}
	.st5{fill:url(#SVGID_4_);}
	.st6{fill:#45FFFA;}
	.st7{fill:#5BE2F8;}
	.st8{clip-path:url(#SVGID_6_);}
	.st9{fill:url(#SVGID_7_);}
	.st10{fill:#FFFFFF;}
	.st11{opacity:0.5;}
	.st12{fill:#109E9E;}
	.st13{opacity:0.65;}
	.st14{fill:#354750;}
	.st15{fill:none;stroke:#272830;stroke-width:0.5;stroke-miterlimit:10;stroke-opacity:0.5;stroke-dasharray:6;}
	.st16{fill:#0D9E9E;}
	.st17{fill:#ABBBC4;}
	.st18{opacity:0.75;clip-path:url(#SVGID_13_);fill:#0B0F11;}
	.st19{fill:none;stroke:url(#SVGID_14_);stroke-width:15;stroke-miterlimit:10;}
	.st20{fill:url(#SVGID_15_);}
	.st21{fill:url(#SVGID_16_);}
	.st22{clip-path:url(#SVGID_18_);}
	.st23{clip-path:url(#SVGID_20_);}
	.st24{clip-path:url(#SVGID_22_);}
	.st25{clip-path:url(#SVGID_24_);}
	.st26{clip-path:url(#SVGID_26_);}
	.st27{clip-path:url(#SVGID_28_);}
	.st28{clip-path:url(#SVGID_30_);}
	.st29{clip-path:url(#SVGID_32_);}
	.st30{clip-path:url(#SVGID_34_);}
	.st31{filter:url(#Adobe_OpacityMaskFilter_1_);}
	.st32{mask:url(#SVGID_35_);}
	.st33{fill:url(#SVGID_36_);}
	.st34{clip-path:url(#SVGID_38_);}
	.st35{filter:url(#Adobe_OpacityMaskFilter_2_);}
	.st36{mask:url(#SVGID_39_);}
	.st37{fill:url(#SVGID_40_);}
	.st38{fill:#FFFFFF;stroke:#272830;stroke-width:0.5;stroke-miterlimit:10;stroke-opacity:0.5;stroke-dasharray:6;}
	.st39{opacity:0.25;}
	.st40{clip-path:url(#SVGID_42_);}
	.st41{filter:url(#Adobe_OpacityMaskFilter_3_);}
	.st42{mask:url(#SVGID_43_);}
	.st43{fill:url(#SVGID_44_);}
	.st44{opacity:0.75;}
	.st45{fill:none;stroke:#FEFEFE;stroke-width:1.7113;stroke-miterlimit:10;}
	.st46{fill:#FEFEFE;}
	.st47{fill:none;stroke:url(#SVGID_47_);stroke-width:15;stroke-linecap:round;stroke-miterlimit:10;}
	.st48{fill:none;stroke:url(#SVGID_50_);stroke-width:15;stroke-linecap:round;stroke-miterlimit:10;}
	.st49{fill:none;stroke:url(#SVGID_53_);stroke-width:15;stroke-linecap:round;stroke-miterlimit:10;}
	.st50{fill:none;stroke:url(#SVGID_56_);stroke-width:15;stroke-linecap:round;stroke-miterlimit:10;}
	.st51{fill:none;stroke:url(#SVGID_59_);stroke-width:15;stroke-linecap:round;stroke-miterlimit:10;}
	.st52{fill:none;stroke:url(#SVGID_60_);stroke-width:15;stroke-linecap:round;stroke-miterlimit:10;}
	.st53{fill:none;stroke:url(#SVGID_63_);stroke-width:15;stroke-linecap:round;stroke-miterlimit:10;}
</style>
<g class="st13">
	<g id="ewU5PX.tif_24_">
		<g>
			<g>
				<path class="st14" d="M11.9,0c0.5,0,1,0,1.5,0c0.5,0.1,1,0.1,1.5,0.2c3.1,0.6,5.7,2.1,7.6,4.5c2.2,2.8,3.1,5.9,2.7,9.4
					c-0.3,2.5-1.2,4.7-2.8,6.6c-2.6,3-5.9,4.5-9.9,4.5c-3.8,0-7.5,0-11.3,0c-0.6,0-1-0.2-1.2-0.8c0-4.2,0-8.4,0-12.6
					c0-0.1,0-0.1,0-0.2c0.1-1.8,0.6-3.4,1.4-5c2-3.6,5-5.7,9-6.5C10.9,0.1,11.4,0.1,11.9,0z M2,23.3c0.1,0,0.2,0,0.3,0
					c3.4,0,6.9,0,10.3,0c0.5,0,1,0,1.4-0.1c2.8-0.4,5.1-1.6,6.9-3.8c1.9-2.4,2.7-5.1,2.3-8.1c-0.4-3.3-2.1-5.8-4.8-7.6
					c-2.2-1.4-4.6-2-7.1-1.6c-3.2,0.4-5.7,2-7.6,4.7C2.5,8.6,2,10.6,2,12.7c0,3.4,0,6.9,0,10.3C2,23.1,2,23.2,2,23.3z"/>
				<path class="st14" d="M11.3,14.5c0-1.2,0.5-2.1,1.4-2.7c0.3-0.2,0.6-0.5,0.9-0.8c0.7-0.7,0.5-1.9-0.7-2.1c-0.3,0-0.7,0-1.1,0
					c-0.3,0.1-0.5,0.3-0.7,0.4c-0.1,0.1-0.2,0.3-0.3,0.4c-0.3,0.4-0.6,0.5-1.1,0.3C9.3,9.9,9,9.5,9.1,9.1c0.1-0.7,0.5-1.2,1.1-1.6
					c1.3-0.9,3.6-0.8,4.9,0.1c1.1,0.8,1.4,2.1,0.8,3.3c-0.3,0.6-0.8,1.2-1.3,1.6c-0.3,0.2-0.5,0.5-0.8,0.7c-0.3,0.3-0.5,0.7-0.5,1.1
					c0,0.2,0,0.4,0,0.6c0,0.3-0.2,0.5-0.5,0.6c-0.3,0.1-0.6,0.1-0.9,0.1c-0.3,0-0.5-0.2-0.6-0.5C11.3,15,11.3,14.7,11.3,14.5z"/>
				<path class="st14" d="M10.9,18.3c0-0.7,0.6-1.3,1.3-1.3c0.7,0,1.3,0.6,1.3,1.3c0,0.7-0.6,1.3-1.3,1.3C11.6,19.6,11,19,10.9,18.3
					z"/>
			</g>
		</g>
	</g>
</g>
</svg>
